<mxfile host="app.diagrams.net" agent="Mozilla/5.0 (Windows NT 10.0; Win64; x64) AppleWebKit/537.36 (KHTML, like Gecko) Chrome/138.0.0.0 Safari/537.36" scale="1" border="0" version="27.1.4">
  <diagram name="Page-1" id="wvrJlw7LrmA51bzFc2xR">
    <mxGraphModel dx="1281" dy="580" grid="1" gridSize="10" guides="1" tooltips="1" connect="1" arrows="1" fold="1" page="1" pageScale="1" pageWidth="850" pageHeight="1100" math="0" shadow="0">
      <root>
        <mxCell id="0" />
        <mxCell id="1" parent="0" />
        <mxCell id="8OkJzlZ0-ArHExa1Jrqa-1" value="Download&lt;div&gt;Assemblies&lt;/div&gt;" style="rounded=1;whiteSpace=wrap;html=1;absoluteArcSize=1;arcSize=14;strokeWidth=2;fillColor=#dae8fc;strokeColor=#6c8ebf;" parent="1" vertex="1">
          <mxGeometry x="636" y="10" width="100" height="100" as="geometry" />
        </mxCell>
        <mxCell id="8OkJzlZ0-ArHExa1Jrqa-5" style="edgeStyle=orthogonalEdgeStyle;rounded=0;orthogonalLoop=1;jettySize=auto;html=1;entryX=1;entryY=0.5;entryDx=0;entryDy=0;" parent="1" source="8OkJzlZ0-ArHExa1Jrqa-2" target="8OkJzlZ0-ArHExa1Jrqa-4" edge="1">
          <mxGeometry relative="1" as="geometry">
            <mxPoint x="358" y="60" as="targetPoint" />
          </mxGeometry>
        </mxCell>
        <mxCell id="8OkJzlZ0-ArHExa1Jrqa-2" value="Assemblies" style="strokeWidth=2;html=1;shape=mxgraph.flowchart.multi-document;whiteSpace=wrap;fillColor=#d5e8d4;strokeColor=#82b366;" parent="1" vertex="1">
          <mxGeometry x="510" y="30" width="88" height="60" as="geometry" />
        </mxCell>
        <mxCell id="8OkJzlZ0-ArHExa1Jrqa-3" style="edgeStyle=orthogonalEdgeStyle;rounded=0;orthogonalLoop=1;jettySize=auto;html=1;entryX=1;entryY=0.5;entryDx=0;entryDy=0;entryPerimeter=0;" parent="1" source="8OkJzlZ0-ArHExa1Jrqa-1" target="8OkJzlZ0-ArHExa1Jrqa-2" edge="1">
          <mxGeometry relative="1" as="geometry" />
        </mxCell>
        <mxCell id="8OkJzlZ0-ArHExa1Jrqa-4" value="ChewBBACA SchemaCreate&lt;div&gt;and AlleleCall&lt;/div&gt;" style="rounded=1;whiteSpace=wrap;html=1;absoluteArcSize=1;arcSize=14;strokeWidth=2;fillColor=#FFF4C3;strokeColor=#FFD966;" parent="1" vertex="1">
          <mxGeometry x="363" y="10" width="100" height="100" as="geometry" />
        </mxCell>
        <mxCell id="8OkJzlZ0-ArHExa1Jrqa-13" style="edgeStyle=orthogonalEdgeStyle;rounded=0;orthogonalLoop=1;jettySize=auto;html=1;entryX=1;entryY=0.5;entryDx=0;entryDy=0;" parent="1" source="8OkJzlZ0-ArHExa1Jrqa-6" target="8OkJzlZ0-ArHExa1Jrqa-12" edge="1">
          <mxGeometry relative="1" as="geometry" />
        </mxCell>
        <mxCell id="8OkJzlZ0-ArHExa1Jrqa-27" style="edgeStyle=orthogonalEdgeStyle;rounded=0;orthogonalLoop=1;jettySize=auto;html=1;entryX=1;entryY=0.5;entryDx=0;entryDy=0;" parent="1" source="8OkJzlZ0-ArHExa1Jrqa-6" target="8OkJzlZ0-ArHExa1Jrqa-26" edge="1">
          <mxGeometry relative="1" as="geometry">
            <Array as="points">
              <mxPoint x="352" y="450" />
            </Array>
          </mxGeometry>
        </mxCell>
        <mxCell id="8OkJzlZ0-ArHExa1Jrqa-33" style="edgeStyle=orthogonalEdgeStyle;rounded=0;orthogonalLoop=1;jettySize=auto;html=1;entryX=0;entryY=0.5;entryDx=0;entryDy=0;" parent="1" source="8OkJzlZ0-ArHExa1Jrqa-6" target="8OkJzlZ0-ArHExa1Jrqa-32" edge="1">
          <mxGeometry relative="1" as="geometry">
            <Array as="points">
              <mxPoint x="352" y="660" />
            </Array>
          </mxGeometry>
        </mxCell>
        <mxCell id="78yHeIwaraZxq5R8GK-r-12" style="edgeStyle=orthogonalEdgeStyle;rounded=0;orthogonalLoop=1;jettySize=auto;html=1;entryX=0;entryY=0.5;entryDx=0;entryDy=0;exitX=0.5;exitY=0.88;exitDx=0;exitDy=0;exitPerimeter=0;" edge="1" parent="1" source="8OkJzlZ0-ArHExa1Jrqa-6" target="8OkJzlZ0-ArHExa1Jrqa-35">
          <mxGeometry relative="1" as="geometry">
            <Array as="points">
              <mxPoint x="352" y="300" />
            </Array>
          </mxGeometry>
        </mxCell>
        <mxCell id="78yHeIwaraZxq5R8GK-r-14" style="edgeStyle=orthogonalEdgeStyle;rounded=0;orthogonalLoop=1;jettySize=auto;html=1;exitX=0.5;exitY=0.88;exitDx=0;exitDy=0;exitPerimeter=0;entryX=0;entryY=0.5;entryDx=0;entryDy=0;" edge="1" parent="1" source="8OkJzlZ0-ArHExa1Jrqa-6" target="8OkJzlZ0-ArHExa1Jrqa-42">
          <mxGeometry relative="1" as="geometry">
            <Array as="points">
              <mxPoint x="352" y="530" />
            </Array>
          </mxGeometry>
        </mxCell>
        <mxCell id="8OkJzlZ0-ArHExa1Jrqa-6" value="Schema" style="strokeWidth=2;html=1;shape=mxgraph.flowchart.multi-document;whiteSpace=wrap;fillColor=#d5e8d4;strokeColor=#82b366;" parent="1" vertex="1">
          <mxGeometry x="308" y="180" width="88" height="60" as="geometry" />
        </mxCell>
        <mxCell id="8OkJzlZ0-ArHExa1Jrqa-36" style="edgeStyle=orthogonalEdgeStyle;rounded=0;orthogonalLoop=1;jettySize=auto;html=1;entryX=0.5;entryY=0;entryDx=0;entryDy=0;" parent="1" source="8OkJzlZ0-ArHExa1Jrqa-8" target="8OkJzlZ0-ArHExa1Jrqa-35" edge="1">
          <mxGeometry relative="1" as="geometry" />
        </mxCell>
        <mxCell id="8OkJzlZ0-ArHExa1Jrqa-8" value="AlleleCall&lt;div&gt;temp Folder&lt;/div&gt;" style="strokeWidth=2;html=1;shape=mxgraph.flowchart.multi-document;whiteSpace=wrap;fillColor=#d5e8d4;strokeColor=#82b366;" parent="1" vertex="1">
          <mxGeometry x="428" y="180" width="88" height="60" as="geometry" />
        </mxCell>
        <mxCell id="8OkJzlZ0-ArHExa1Jrqa-10" style="edgeStyle=orthogonalEdgeStyle;rounded=0;orthogonalLoop=1;jettySize=auto;html=1;entryX=0.5;entryY=0;entryDx=0;entryDy=0;entryPerimeter=0;" parent="1" source="8OkJzlZ0-ArHExa1Jrqa-4" target="8OkJzlZ0-ArHExa1Jrqa-6" edge="1">
          <mxGeometry relative="1" as="geometry" />
        </mxCell>
        <mxCell id="8OkJzlZ0-ArHExa1Jrqa-11" style="edgeStyle=orthogonalEdgeStyle;rounded=0;orthogonalLoop=1;jettySize=auto;html=1;entryX=0.5;entryY=0;entryDx=0;entryDy=0;entryPerimeter=0;" parent="1" source="8OkJzlZ0-ArHExa1Jrqa-4" target="8OkJzlZ0-ArHExa1Jrqa-8" edge="1">
          <mxGeometry relative="1" as="geometry" />
        </mxCell>
        <mxCell id="8OkJzlZ0-ArHExa1Jrqa-12" value="Schema&lt;div&gt;Annotation&lt;/div&gt;" style="rounded=1;whiteSpace=wrap;html=1;absoluteArcSize=1;arcSize=14;strokeWidth=2;fillColor=#dae8fc;strokeColor=#6c8ebf;" parent="1" vertex="1">
          <mxGeometry x="168" y="160" width="100" height="100" as="geometry" />
        </mxCell>
        <mxCell id="8OkJzlZ0-ArHExa1Jrqa-17" style="edgeStyle=orthogonalEdgeStyle;rounded=0;orthogonalLoop=1;jettySize=auto;html=1;entryX=0;entryY=0.5;entryDx=0;entryDy=0;" parent="1" source="8OkJzlZ0-ArHExa1Jrqa-14" target="8OkJzlZ0-ArHExa1Jrqa-12" edge="1">
          <mxGeometry relative="1" as="geometry">
            <Array as="points">
              <mxPoint x="140" y="170" />
              <mxPoint x="140" y="210" />
            </Array>
          </mxGeometry>
        </mxCell>
        <mxCell id="8OkJzlZ0-ArHExa1Jrqa-14" value="GenBank&lt;div&gt;files&lt;/div&gt;" style="strokeWidth=2;html=1;shape=mxgraph.flowchart.multi-document;whiteSpace=wrap;fillColor=#E1D5E7;strokeColor=#9673A6;" parent="1" vertex="1">
          <mxGeometry x="20" y="140" width="100" height="60" as="geometry" />
        </mxCell>
        <mxCell id="8OkJzlZ0-ArHExa1Jrqa-16" style="edgeStyle=orthogonalEdgeStyle;rounded=0;orthogonalLoop=1;jettySize=auto;html=1;entryX=0;entryY=0.5;entryDx=0;entryDy=0;" parent="1" source="8OkJzlZ0-ArHExa1Jrqa-15" target="8OkJzlZ0-ArHExa1Jrqa-12" edge="1">
          <mxGeometry relative="1" as="geometry">
            <Array as="points">
              <mxPoint x="140" y="250" />
              <mxPoint x="140" y="210" />
            </Array>
          </mxGeometry>
        </mxCell>
        <mxCell id="8OkJzlZ0-ArHExa1Jrqa-15" value="Proteome file" style="strokeWidth=2;html=1;shape=mxgraph.flowchart.document2;whiteSpace=wrap;size=0.25;fillColor=#E1D5E7;strokeColor=#9673A6;" parent="1" vertex="1">
          <mxGeometry x="20" y="220" width="100" height="60" as="geometry" />
        </mxCell>
        <mxCell id="8OkJzlZ0-ArHExa1Jrqa-20" value="Merged annotations file" style="strokeWidth=2;html=1;shape=mxgraph.flowchart.document2;whiteSpace=wrap;size=0.25;fillColor=#d5e8d4;strokeColor=#82b366;" parent="1" vertex="1">
          <mxGeometry x="168" y="290" width="100" height="60" as="geometry" />
        </mxCell>
        <mxCell id="8OkJzlZ0-ArHExa1Jrqa-21" style="edgeStyle=orthogonalEdgeStyle;rounded=0;orthogonalLoop=1;jettySize=auto;html=1;entryX=0.5;entryY=0;entryDx=0;entryDy=0;entryPerimeter=0;" parent="1" source="8OkJzlZ0-ArHExa1Jrqa-12" target="8OkJzlZ0-ArHExa1Jrqa-20" edge="1">
          <mxGeometry relative="1" as="geometry" />
        </mxCell>
        <mxCell id="8OkJzlZ0-ArHExa1Jrqa-26" value="MatchSchema" style="rounded=1;whiteSpace=wrap;html=1;absoluteArcSize=1;arcSize=14;strokeWidth=2;fillColor=#dae8fc;strokeColor=#6c8ebf;" parent="1" vertex="1">
          <mxGeometry x="168" y="400" width="100" height="100" as="geometry" />
        </mxCell>
        <mxCell id="8OkJzlZ0-ArHExa1Jrqa-29" style="edgeStyle=orthogonalEdgeStyle;rounded=0;orthogonalLoop=1;jettySize=auto;html=1;" parent="1" source="8OkJzlZ0-ArHExa1Jrqa-28" edge="1">
          <mxGeometry relative="1" as="geometry">
            <mxPoint x="218" y="500" as="targetPoint" />
          </mxGeometry>
        </mxCell>
        <mxCell id="8OkJzlZ0-ArHExa1Jrqa-28" value="External Schemas to match" style="strokeWidth=2;html=1;shape=mxgraph.flowchart.multi-document;whiteSpace=wrap;fillColor=#E1D5E7;strokeColor=#9673A6;" parent="1" vertex="1">
          <mxGeometry x="174" y="520" width="88" height="60" as="geometry" />
        </mxCell>
        <mxCell id="8OkJzlZ0-ArHExa1Jrqa-30" value="Matched Schema Results tsv" style="strokeWidth=2;html=1;shape=mxgraph.flowchart.document2;whiteSpace=wrap;size=0.25;fillColor=#d5e8d4;strokeColor=#82b366;" parent="1" vertex="1">
          <mxGeometry x="26" y="420" width="100" height="60" as="geometry" />
        </mxCell>
        <mxCell id="8OkJzlZ0-ArHExa1Jrqa-31" style="edgeStyle=orthogonalEdgeStyle;rounded=0;orthogonalLoop=1;jettySize=auto;html=1;entryX=1;entryY=0.5;entryDx=0;entryDy=0;entryPerimeter=0;" parent="1" source="8OkJzlZ0-ArHExa1Jrqa-26" target="8OkJzlZ0-ArHExa1Jrqa-30" edge="1">
          <mxGeometry relative="1" as="geometry" />
        </mxCell>
        <mxCell id="8OkJzlZ0-ArHExa1Jrqa-32" value="Identify&lt;div&gt;Paraogous&lt;div&gt;Loci&lt;br&gt;&lt;/div&gt;&lt;/div&gt;" style="rounded=1;whiteSpace=wrap;html=1;absoluteArcSize=1;arcSize=14;strokeWidth=2;fillColor=#dae8fc;strokeColor=#6c8ebf;" parent="1" vertex="1">
          <mxGeometry x="396" y="610" width="100" height="100" as="geometry" />
        </mxCell>
        <mxCell id="8OkJzlZ0-ArHExa1Jrqa-35" value="IdentifySpurious&lt;div&gt;Genes&amp;nbsp;&lt;/div&gt;" style="rounded=1;whiteSpace=wrap;html=1;absoluteArcSize=1;arcSize=14;strokeWidth=2;fillColor=#dae8fc;strokeColor=#6c8ebf;" parent="1" vertex="1">
          <mxGeometry x="582" y="250" width="100" height="100" as="geometry" />
        </mxCell>
        <mxCell id="8OkJzlZ0-ArHExa1Jrqa-42" value="CreateSchema&lt;div&gt;Structure&lt;/div&gt;" style="rounded=1;whiteSpace=wrap;html=1;absoluteArcSize=1;arcSize=14;strokeWidth=2;fillColor=#dae8fc;strokeColor=#6c8ebf;" parent="1" vertex="1">
          <mxGeometry x="582" y="480" width="100" height="100" as="geometry" />
        </mxCell>
        <mxCell id="8OkJzlZ0-ArHExa1Jrqa-59" value="SchemaRefinery modules" style="rounded=0;whiteSpace=wrap;html=1;fillColor=#dae8fc;strokeColor=#6c8ebf;" parent="1" vertex="1">
          <mxGeometry x="890" y="190" width="120" height="60" as="geometry" />
        </mxCell>
        <mxCell id="8OkJzlZ0-ArHExa1Jrqa-61" value="ChewBBACA" style="rounded=0;whiteSpace=wrap;html=1;fillColor=#FFF4C3;strokeColor=#FFD966;" parent="1" vertex="1">
          <mxGeometry x="890" y="110" width="120" height="60" as="geometry" />
        </mxCell>
        <mxCell id="8OkJzlZ0-ArHExa1Jrqa-62" value="Output files" style="rounded=0;whiteSpace=wrap;html=1;fillColor=#d5e8d4;strokeColor=#82b366;" parent="1" vertex="1">
          <mxGeometry x="890" y="275" width="120" height="60" as="geometry" />
        </mxCell>
        <mxCell id="8OkJzlZ0-ArHExa1Jrqa-63" value="Color description:" style="text;html=1;align=center;verticalAlign=middle;resizable=0;points=[];autosize=1;strokeColor=none;fillColor=none;" parent="1" vertex="1">
          <mxGeometry x="780" y="75" width="110" height="30" as="geometry" />
        </mxCell>
        <mxCell id="8OkJzlZ0-ArHExa1Jrqa-64" value="Input file" style="rounded=0;whiteSpace=wrap;html=1;fillColor=#E1D5E7;strokeColor=#9673A6;" parent="1" vertex="1">
          <mxGeometry x="890" y="360" width="120" height="60" as="geometry" />
        </mxCell>
        <mxCell id="kS7Rdw5KaEIiwjgRS0G--1" value="AdaptLoci" style="rounded=1;whiteSpace=wrap;html=1;absoluteArcSize=1;arcSize=14;strokeWidth=2;fillColor=#dae8fc;strokeColor=#6c8ebf;" parent="1" vertex="1">
          <mxGeometry x="168" y="10" width="100" height="100" as="geometry" />
        </mxCell>
        <mxCell id="kS7Rdw5KaEIiwjgRS0G--3" style="edgeStyle=orthogonalEdgeStyle;rounded=0;orthogonalLoop=1;jettySize=auto;html=1;entryX=0;entryY=0.5;entryDx=0;entryDy=0;" parent="1" source="kS7Rdw5KaEIiwjgRS0G--2" target="kS7Rdw5KaEIiwjgRS0G--1" edge="1">
          <mxGeometry relative="1" as="geometry" />
        </mxCell>
        <mxCell id="kS7Rdw5KaEIiwjgRS0G--2" value="Fasta files or schema" style="strokeWidth=2;html=1;shape=mxgraph.flowchart.multi-document;whiteSpace=wrap;fillColor=#E1D5E7;strokeColor=#9673A6;" parent="1" vertex="1">
          <mxGeometry x="20" y="30" width="100" height="60" as="geometry" />
        </mxCell>
        <mxCell id="kS7Rdw5KaEIiwjgRS0G--5" style="edgeStyle=orthogonalEdgeStyle;rounded=0;orthogonalLoop=1;jettySize=auto;html=1;entryX=0.5;entryY=0;entryDx=0;entryDy=0;entryPerimeter=0;" parent="1" source="kS7Rdw5KaEIiwjgRS0G--1" target="8OkJzlZ0-ArHExa1Jrqa-6" edge="1">
          <mxGeometry relative="1" as="geometry">
            <mxPoint x="206" y="155" as="targetPoint" />
          </mxGeometry>
        </mxCell>
        <mxCell id="h8RXgRxo7XhYziB47HCt-1" style="edgeStyle=orthogonalEdgeStyle;rounded=0;orthogonalLoop=1;jettySize=auto;html=1;entryX=0;entryY=0.5;entryDx=0;entryDy=0;exitX=0.5;exitY=0;exitDx=0;exitDy=0;exitPerimeter=0;" parent="1" source="8OkJzlZ0-ArHExa1Jrqa-30" target="8OkJzlZ0-ArHExa1Jrqa-12" edge="1">
          <mxGeometry relative="1" as="geometry">
            <mxPoint x="130" y="260" as="sourcePoint" />
            <mxPoint x="178" y="220" as="targetPoint" />
            <Array as="points">
              <mxPoint x="76" y="320" />
              <mxPoint x="140" y="320" />
              <mxPoint x="140" y="210" />
            </Array>
          </mxGeometry>
        </mxCell>
        <mxCell id="78yHeIwaraZxq5R8GK-r-11" style="edgeStyle=orthogonalEdgeStyle;rounded=0;orthogonalLoop=1;jettySize=auto;html=1;entryX=0.5;entryY=0;entryDx=0;entryDy=0;exitX=0.501;exitY=0.918;exitDx=0;exitDy=0;exitPerimeter=0;" edge="1" parent="1" source="78yHeIwaraZxq5R8GK-r-1" target="8OkJzlZ0-ArHExa1Jrqa-42">
          <mxGeometry relative="1" as="geometry" />
        </mxCell>
        <mxCell id="78yHeIwaraZxq5R8GK-r-1" value="recommendation file" style="strokeWidth=2;html=1;shape=mxgraph.flowchart.document2;whiteSpace=wrap;size=0.25;fillColor=#D5E8D4;strokeColor=#97D077;" vertex="1" parent="1">
          <mxGeometry x="582" y="380" width="100" height="60" as="geometry" />
        </mxCell>
        <mxCell id="78yHeIwaraZxq5R8GK-r-5" style="edgeStyle=orthogonalEdgeStyle;rounded=0;orthogonalLoop=1;jettySize=auto;html=1;entryX=0.5;entryY=1;entryDx=0;entryDy=0;" edge="1" parent="1" source="78yHeIwaraZxq5R8GK-r-3" target="8OkJzlZ0-ArHExa1Jrqa-42">
          <mxGeometry relative="1" as="geometry" />
        </mxCell>
        <mxCell id="78yHeIwaraZxq5R8GK-r-3" value="recommendation file" style="strokeWidth=2;html=1;shape=mxgraph.flowchart.document2;whiteSpace=wrap;size=0.25;fillColor=#D5E8D4;strokeColor=#97D077;" vertex="1" parent="1">
          <mxGeometry x="582" y="630" width="100" height="60" as="geometry" />
        </mxCell>
        <mxCell id="78yHeIwaraZxq5R8GK-r-4" style="edgeStyle=orthogonalEdgeStyle;rounded=0;orthogonalLoop=1;jettySize=auto;html=1;entryX=0;entryY=0.5;entryDx=0;entryDy=0;entryPerimeter=0;" edge="1" parent="1" source="8OkJzlZ0-ArHExa1Jrqa-32" target="78yHeIwaraZxq5R8GK-r-3">
          <mxGeometry relative="1" as="geometry" />
        </mxCell>
        <mxCell id="78yHeIwaraZxq5R8GK-r-6" value="Final schema" style="strokeWidth=2;html=1;shape=mxgraph.flowchart.multi-document;whiteSpace=wrap;fillColor=#d5e8d4;strokeColor=#82b366;" vertex="1" parent="1">
          <mxGeometry x="736" y="485" width="120" height="90" as="geometry" />
        </mxCell>
        <mxCell id="78yHeIwaraZxq5R8GK-r-7" style="edgeStyle=orthogonalEdgeStyle;rounded=0;orthogonalLoop=1;jettySize=auto;html=1;entryX=0;entryY=0.5;entryDx=0;entryDy=0;entryPerimeter=0;" edge="1" parent="1" source="8OkJzlZ0-ArHExa1Jrqa-42" target="78yHeIwaraZxq5R8GK-r-6">
          <mxGeometry relative="1" as="geometry" />
        </mxCell>
        <mxCell id="78yHeIwaraZxq5R8GK-r-10" style="edgeStyle=orthogonalEdgeStyle;rounded=0;orthogonalLoop=1;jettySize=auto;html=1;entryX=0.5;entryY=0;entryDx=0;entryDy=0;entryPerimeter=0;" edge="1" parent="1" source="8OkJzlZ0-ArHExa1Jrqa-35" target="78yHeIwaraZxq5R8GK-r-1">
          <mxGeometry relative="1" as="geometry" />
        </mxCell>
      </root>
    </mxGraphModel>
  </diagram>
</mxfile>
